<?xml version="1.0" encoding="UTF-8"?>
<svg id="uuid-961bf4cb-db0c-4735-8f57-f53a4dc7933c" data-name="Layer 1" xmlns="http://www.w3.org/2000/svg" xmlns:xlink="http://www.w3.org/1999/xlink" viewBox="0 0 240 240">
  <defs>
    <style>
      .uuid-aea9548a-0f05-4d2b-9457-04f881f28a2b {
        fill: none;
      }

      .uuid-aea9548a-0f05-4d2b-9457-04f881f28a2b, .uuid-186cab65-d554-40d3-8781-bb1509d3a676, .uuid-fad6a0db-3604-49a4-bbfe-fd14946672bb, .uuid-dbea0d7d-6b9e-404b-9fa0-9abe389c5e3d {
        stroke-width: 0px;
      }

      .uuid-fc1a1594-9465-4846-819a-84b35a1b064e {
        clip-path: url(#uuid-cc84cc8b-c397-4dc9-b6ba-72e4bad86e88);
      }

      .uuid-186cab65-d554-40d3-8781-bb1509d3a676 {
        fill: #122852;
      }

      .uuid-fad6a0db-3604-49a4-bbfe-fd14946672bb {
        fill: #fff;
      }

      .uuid-dbea0d7d-6b9e-404b-9fa0-9abe389c5e3d {
        fill: #0064ff;
      }
    </style>
    <clipPath id="uuid-cc84cc8b-c397-4dc9-b6ba-72e4bad86e88">
      <path class="uuid-aea9548a-0f05-4d2b-9457-04f881f28a2b" d="M164.65,105.04c2.66-.96,3.96-4.03,3.96-6.86v-42.51c0-2.83-1.51-5.44-3.96-6.86l-36.82-21.26c-2.45-1.41-5.47-1.41-7.92,0l-36.82,21.26c-2.45,1.41-3.96,4.03-3.96,6.86v42.51c0,2.83,1.21,6.2,3.96,6.86,3.33.8,77.55,1.44,81.55,0Z"/>
    </clipPath>
  </defs>
  <g>
    <path class="uuid-dbea0d7d-6b9e-404b-9fa0-9abe389c5e3d" d="M33.34,181.92v-8.59c0-.72.34-1.06,1.06-1.06h4.7c.72,0,1.06.34,1.06,1.06v25.25c0,6.96-2.78,9.7-11.42,9.7h-13.44c-8.64,0-11.42-2.74-11.42-9.7v-6.91c0-6.96,2.78-9.74,11.42-9.74h18.05ZM33.34,197.24v-9.55H15.96c-4.13,0-5.23,1.25-5.23,5.28v4.27c0,4.03,1.1,5.28,5.23,5.28h12.1c4.18,0,5.28-1.25,5.28-5.28Z"/>
    <path class="uuid-dbea0d7d-6b9e-404b-9fa0-9abe389c5e3d" d="M65.02,181.92c8.64,0,11.43,2.78,11.43,9.74v12.77c0,3.12-.77,3.84-3.55,3.84h-22.85c-5.66,0-7.39-2.06-7.39-6.82v-2.3c0-4.03,1.73-6.29,7.39-6.29h19.54v-.91c0-3.07-1.06-4.27-5.23-4.27h-20.07c-.58,0-.86-.24-.86-.86v-4.03c0-.58.29-.86.86-.86h20.74ZM69.58,201.36v-4.22h-17.57c-1.97,0-2.69.82-2.69,2.35v1.01c0,1.73.72,2.5,2.69,2.5h16.18c1.01,0,1.39-.43,1.39-1.63Z"/>
    <path class="uuid-dbea0d7d-6b9e-404b-9fa0-9abe389c5e3d" d="M82.39,181.92v-6.34c0-.72.38-1.06,1.06-1.06h4.75c.67,0,1.06.34,1.06,1.06v6.34h8.4c.62,0,.86.29.86.86v3.94c0,.58-.24.86-.86.86h-8.4v11.14c0,2.64.86,3.89,4.03,3.89h4.66c.62,0,.86.29.86.86v3.94c0,.58-.24.86-.86.86h-5.81c-7.68,0-9.74-2.74-9.74-9.55v-11.14h-4.56c-.58,0-.86-.29-.86-.86v-3.94c0-.58.29-.86.86-.86h4.56Z"/>
    <path class="uuid-186cab65-d554-40d3-8781-bb1509d3a676" d="M106.73,174.67c.72,0,1.06.34,1.06,1.06v12.48h22.47v-12.48c0-.72.34-1.06,1.06-1.06h5.18c.72,0,1.1.34,1.1,1.06v31.49c0,.72-.38,1.06-1.1,1.06h-5.18c-.72,0-1.06-.34-1.06-1.06v-12.77h-22.47v12.77c0,.72-.34,1.06-1.06,1.06h-5.18c-.72,0-1.1-.34-1.1-1.06v-31.49c0-.72.38-1.06,1.1-1.06h5.18Z"/>
    <path class="uuid-186cab65-d554-40d3-8781-bb1509d3a676" d="M165.82,181.92c6.58,0,8.3,2.06,8.3,7.87v4.56c0,2.06-.86,2.74-2.74,2.74h-24.24v1.15c0,3.02,1.1,4.27,5.28,4.27h20.02c.58,0,.86.29.86.86v4.03c0,.58-.29.86-.86.86h-20.69c-8.64,0-11.42-2.74-11.42-9.7v-6.91c0-6.96,2.78-9.74,11.42-9.74h14.07ZM147.14,192.82h19.44c.58,0,.82-.19.82-.82v-2.02c0-1.97-.72-2.74-2.93-2.74h-12.05c-4.18,0-5.28,1.2-5.28,4.27v1.3Z"/>
    <path class="uuid-186cab65-d554-40d3-8781-bb1509d3a676" d="M201.58,181.92c.58,0,.86.29.86.86v4.03c0,.62-.29.86-.86.86h-12.77c-4.13,0-5.23,1.25-5.23,5.28v14.26c0,.72-.34,1.06-1.06,1.06h-4.7c-.72,0-1.1-.34-1.1-1.06v-15.55c0-6.96,2.78-9.74,11.42-9.74h13.44Z"/>
    <path class="uuid-186cab65-d554-40d3-8781-bb1509d3a676" d="M228.31,181.92c6.58,0,8.3,2.06,8.3,7.87v4.56c0,2.06-.86,2.74-2.74,2.74h-24.24v1.15c0,3.02,1.1,4.27,5.28,4.27h20.02c.58,0,.86.29.86.86v4.03c0,.58-.29.86-.86.86h-20.69c-8.64,0-11.42-2.74-11.42-9.7v-6.91c0-6.96,2.78-9.74,11.42-9.74h14.07ZM209.64,192.82h19.44c.58,0,.82-.19.82-.82v-2.02c0-1.97-.72-2.74-2.93-2.74h-12.05c-4.18,0-5.28,1.2-5.28,4.27v1.3Z"/>
  </g>
  <g>
    <path class="uuid-dbea0d7d-6b9e-404b-9fa0-9abe389c5e3d" d="M123.87,151.14l47.11-38.06c2.83-1.63,4.57-4.65,4.57-7.92v-49.12c0-3.27-1.74-6.29-4.57-7.92l-42.54-24.56c-2.83-1.63-6.32-1.63-9.15,0l-42.54,24.56c-2.83,1.63-4.57,4.65-4.57,7.92v49.12c0,3.27,1.74,6.29,4.57,7.92l47.11,38.06Z"/>
    <path class="uuid-186cab65-d554-40d3-8781-bb1509d3a676" d="M170.98,44.45l-42.54-24.56c-2.83-1.63-6.32-1.63-9.15,0l-42.54,24.56c-2.83,1.63-4.57,4.65-4.57,7.92v49.12c0,3.27,1.74,6.29,4.57,7.92l42.54,24.56c2.83,1.63,6.32,1.63,9.15,0l42.54-24.56c2.83-1.63,4.57-4.65,4.57-7.92v-49.12c0-3.27-1.74-6.29-4.57-7.92Z"/>
    <path class="uuid-fad6a0db-3604-49a4-bbfe-fd14946672bb" d="M164.65,105.04c2.66-.96,3.96-4.03,3.96-6.86v-42.51c0-2.83-1.51-5.44-3.96-6.86l-36.82-21.26c-2.45-1.41-5.47-1.41-7.92,0l-36.82,21.26c-2.45,1.41-3.96,4.03-3.96,6.86v42.51c0,2.83,1.21,6.2,3.96,6.86,3.33.8,77.55,1.44,81.55,0Z"/>
    <g class="uuid-fc1a1594-9465-4846-819a-84b35a1b064e">
      <g>
        <rect class="uuid-dbea0d7d-6b9e-404b-9fa0-9abe389c5e3d" x="133.26" y="81.59" width="9.84" height="32.45"/>
        <rect class="uuid-dbea0d7d-6b9e-404b-9fa0-9abe389c5e3d" x="118.49" y="66.67" width="9.84" height="50.95"/>
        <rect class="uuid-dbea0d7d-6b9e-404b-9fa0-9abe389c5e3d" x="103.73" y="73.45" width="9.84" height="40.59"/>
      </g>
    </g>
  </g>
</svg>