<?xml version="1.0" encoding="UTF-8"?>
<svg id="uuid-0f172f6a-ccdd-4ecb-a30c-fb35a542f9cc" data-name="Layer 1" xmlns="http://www.w3.org/2000/svg" xmlns:xlink="http://www.w3.org/1999/xlink" viewBox="0 0 300 54">
  <defs>
    <style>
      .uuid-8741566c-1922-4ca8-97a5-890b9362fc5d {
        fill: none;
      }

      .uuid-8741566c-1922-4ca8-97a5-890b9362fc5d, .uuid-a3d7d596-12ed-46e0-abdc-3aedc946d7a0, .uuid-c75e6066-b146-4c64-ac3b-85afd321c97e, .uuid-4492eddb-317e-4108-9b0d-4f31616e0984 {
        stroke-width: 0px;
      }

      .uuid-9ab4f681-f840-4e39-bdf4-ca703489b0fc {
        clip-path: url(#uuid-3f028597-af33-4ff0-9a38-0b2c8148c519);
      }

      .uuid-a3d7d596-12ed-46e0-abdc-3aedc946d7a0 {
        fill: #122852;
      }

      .uuid-c75e6066-b146-4c64-ac3b-85afd321c97e {
        fill: #fff;
      }

      .uuid-4492eddb-317e-4108-9b0d-4f31616e0984 {
        fill: #0064ff;
      }
    </style>
    <clipPath id="uuid-3f028597-af33-4ff0-9a38-0b2c8148c519">
      <path class="uuid-8741566c-1922-4ca8-97a5-890b9362fc5d" d="M37.68,34.3c.96-.35,1.43-1.46,1.43-2.48v-15.41c0-1.02-.55-1.97-1.43-2.48l-13.34-7.7c-.89-.51-1.98-.51-2.87,0l-13.34,7.7c-.89.51-1.43,1.46-1.43,2.48v15.41c0,1.02.44,2.25,1.43,2.48,1.21.29,28.1.52,29.55,0Z"/>
    </clipPath>
  </defs>
  <g>
    <path class="uuid-4492eddb-317e-4108-9b0d-4f31616e0984" d="M92.55,18.65v-8.59c0-.72.34-1.06,1.06-1.06h4.7c.72,0,1.06.34,1.06,1.06v25.25c0,6.96-2.78,9.7-11.42,9.7h-13.44c-8.64,0-11.42-2.74-11.42-9.7v-6.91c0-6.96,2.78-9.74,11.42-9.74h18.05ZM92.55,33.96v-9.55h-17.38c-4.13,0-5.23,1.25-5.23,5.28v4.27c0,4.03,1.1,5.28,5.23,5.28h12.1c4.18,0,5.28-1.25,5.28-5.28Z"/>
    <path class="uuid-4492eddb-317e-4108-9b0d-4f31616e0984" d="M124.23,18.65c8.64,0,11.43,2.78,11.43,9.74v12.77c0,3.12-.77,3.84-3.55,3.84h-22.85c-5.66,0-7.39-2.06-7.39-6.82v-2.3c0-4.03,1.73-6.29,7.39-6.29h19.54v-.91c0-3.07-1.06-4.27-5.23-4.27h-20.07c-.58,0-.86-.24-.86-.86v-4.03c0-.58.29-.86.86-.86h20.74ZM128.79,38.09v-4.22h-17.57c-1.97,0-2.69.82-2.69,2.35v1.01c0,1.73.72,2.5,2.69,2.5h16.18c1.01,0,1.39-.43,1.39-1.63Z"/>
    <path class="uuid-4492eddb-317e-4108-9b0d-4f31616e0984" d="M141.6,18.65v-6.34c0-.72.38-1.06,1.06-1.06h4.75c.67,0,1.06.34,1.06,1.06v6.34h8.4c.62,0,.86.29.86.86v3.94c0,.58-.24.86-.86.86h-8.4v11.14c0,2.64.86,3.89,4.03,3.89h4.66c.62,0,.86.29.86.86v3.94c0,.58-.24.86-.86.86h-5.81c-7.68,0-9.74-2.74-9.74-9.55v-11.14h-4.56c-.58,0-.86-.29-.86-.86v-3.94c0-.58.29-.86.86-.86h4.56Z"/>
    <path class="uuid-a3d7d596-12ed-46e0-abdc-3aedc946d7a0" d="M165.94,11.4c.72,0,1.06.34,1.06,1.06v12.48h22.47v-12.48c0-.72.34-1.06,1.06-1.06h5.18c.72,0,1.1.34,1.1,1.06v31.49c0,.72-.38,1.06-1.1,1.06h-5.18c-.72,0-1.06-.34-1.06-1.06v-12.77h-22.47v12.77c0,.72-.34,1.06-1.06,1.06h-5.18c-.72,0-1.1-.34-1.1-1.06V12.45c0-.72.38-1.06,1.1-1.06h5.18Z"/>
    <path class="uuid-a3d7d596-12ed-46e0-abdc-3aedc946d7a0" d="M225.03,18.65c6.58,0,8.3,2.06,8.3,7.87v4.56c0,2.06-.86,2.74-2.74,2.74h-24.24v1.15c0,3.02,1.1,4.27,5.28,4.27h20.02c.58,0,.86.29.86.86v4.03c0,.58-.29.86-.86.86h-20.69c-8.64,0-11.42-2.74-11.42-9.7v-6.91c0-6.96,2.78-9.74,11.42-9.74h14.07ZM206.35,29.54h19.44c.58,0,.82-.19.82-.82v-2.02c0-1.97-.72-2.74-2.93-2.74h-12.05c-4.18,0-5.28,1.2-5.28,4.27v1.3Z"/>
    <path class="uuid-a3d7d596-12ed-46e0-abdc-3aedc946d7a0" d="M260.79,18.65c.58,0,.86.29.86.86v4.03c0,.62-.29.86-.86.86h-12.77c-4.13,0-5.23,1.25-5.23,5.28v14.26c0,.72-.34,1.06-1.06,1.06h-4.7c-.72,0-1.1-.34-1.1-1.06v-15.55c0-6.96,2.78-9.74,11.42-9.74h13.44Z"/>
    <path class="uuid-a3d7d596-12ed-46e0-abdc-3aedc946d7a0" d="M287.52,18.65c6.58,0,8.3,2.06,8.3,7.87v4.56c0,2.06-.86,2.74-2.74,2.74h-24.24v1.15c0,3.02,1.1,4.27,5.28,4.27h20.02c.58,0,.86.29.86.86v4.03c0,.58-.29.86-.86.86h-20.69c-8.64,0-11.42-2.74-11.42-9.7v-6.91c0-6.96,2.78-9.74,11.42-9.74h14.07ZM268.85,29.54h19.44c.58,0,.82-.19.82-.82v-2.02c0-1.97-.72-2.74-2.93-2.74h-12.05c-4.18,0-5.28,1.2-5.28,4.27v1.3Z"/>
  </g>
  <g>
    <path class="uuid-4492eddb-317e-4108-9b0d-4f31616e0984" d="M22.9,51l17.07-13.79c1.03-.59,1.66-1.69,1.66-2.87v-17.8c0-1.18-.63-2.28-1.66-2.87l-15.41-8.9c-1.03-.59-2.29-.59-3.31,0L5.83,13.67c-1.03.59-1.66,1.69-1.66,2.87v17.8c0,1.18.63,2.28,1.66,2.87l17.07,13.79Z"/>
    <path class="uuid-a3d7d596-12ed-46e0-abdc-3aedc946d7a0" d="M39.97,12.34L24.56,3.44c-1.03-.59-2.29-.59-3.31,0L5.83,12.34c-1.03.59-1.66,1.69-1.66,2.87v17.8c0,1.18.63,2.28,1.66,2.87l15.41,8.9c1.03.59,2.29.59,3.31,0l15.41-8.9c1.03-.59,1.66-1.69,1.66-2.87V15.21c0-1.18-.63-2.28-1.66-2.87Z"/>
    <path class="uuid-c75e6066-b146-4c64-ac3b-85afd321c97e" d="M37.68,34.3c.96-.35,1.43-1.46,1.43-2.48v-15.41c0-1.02-.55-1.97-1.43-2.48l-13.34-7.7c-.89-.51-1.98-.51-2.87,0l-13.34,7.7c-.89.51-1.43,1.46-1.43,2.48v15.41c0,1.02.44,2.25,1.43,2.48,1.21.29,28.1.52,29.55,0Z"/>
    <g class="uuid-9ab4f681-f840-4e39-bdf4-ca703489b0fc">
      <g>
        <rect class="uuid-4492eddb-317e-4108-9b0d-4f31616e0984" x="26.31" y="25.8" width="3.57" height="11.76"/>
        <rect class="uuid-4492eddb-317e-4108-9b0d-4f31616e0984" x="20.95" y="20.39" width="3.57" height="18.46"/>
        <rect class="uuid-4492eddb-317e-4108-9b0d-4f31616e0984" x="15.6" y="22.85" width="3.57" height="14.71"/>
      </g>
    </g>
  </g>
</svg>